<svg id="Layer_1" data-name="Layer 1" xmlns="http://www.w3.org/2000/svg" viewBox="0 0 470.3 98.6"><defs><style>.cls-1{fill:#c9a751;stroke:#a57c41;stroke-miterlimit:10;stroke-width:3px;}.cls-2{isolation:isolate;}.cls-3{fill:#fff;}.cls-4{fill:#3d3b38;fill-rule:evenodd;}</style></defs><path class="cls-1" d="M419.7,95.6H48A47.8,47.8,0,0,1,.2,47.8h0A47.8,47.8,0,0,1,48,0H419.7a47.8,47.8,0,0,1,47.8,47.8h0A47.74,47.74,0,0,1,419.7,95.6Z" transform="translate(1.3 1.5)"/><g class="cls-2"><path class="cls-3" d="M225.9,37.5,220.4,56H217l-3.9-14L209,56h-3.4l-5.2-18.5h3.2l3.8,15,4.1-15h3.4l3.8,14.9,3.8-14.9Z" transform="translate(1.3 1.5)"/><path class="cls-3" d="M238.9,41.8a5.3,5.3,0,0,1,2.1,2.1,7.12,7.12,0,0,1,.8,3.4V56h-3V47.8a4,4,0,0,0-1-3,4.14,4.14,0,0,0-5.4,0,4,4,0,0,0-1,3V56h-3V36.3h3V43a4.83,4.83,0,0,1,2-1.4,7.51,7.51,0,0,1,2.6-.5A5.43,5.43,0,0,1,238.9,41.8Z" transform="translate(1.3 1.5)"/><path class="cls-3" d="M245.5,44.7a6.27,6.27,0,0,1,2.5-2.6,7,7,0,0,1,3.5-.9,5.56,5.56,0,0,1,3,.7,7.13,7.13,0,0,1,2.1,1.7V41.5h3.1V56h-3.1V53.8a5.1,5.1,0,0,1-2.1,1.7,7.35,7.35,0,0,1-3,.7,6.2,6.2,0,0,1-3.5-1,6.56,6.56,0,0,1-2.5-2.7,8.6,8.6,0,0,1-.9-3.9A8,8,0,0,1,245.5,44.7ZM255.9,46a5.23,5.23,0,0,0-1.6-1.7,4,4,0,0,0-2.2-.6,4.28,4.28,0,0,0-2.2.6,3.78,3.78,0,0,0-1.6,1.7,5.54,5.54,0,0,0-.6,2.6,6,6,0,0,0,.6,2.7,4.4,4.4,0,0,0,1.6,1.7,4.33,4.33,0,0,0,4.4,0,4.36,4.36,0,0,0,1.6-1.7,5.54,5.54,0,0,0,.6-2.6A4.9,4.9,0,0,0,255.9,46Z" transform="translate(1.3 1.5)"/><path class="cls-3" d="M267.1,43.8v8.1a1.59,1.59,0,0,0,.4,1.2,2.23,2.23,0,0,0,1.3.4h1.9V56h-2.4a4.14,4.14,0,0,1-3.1-1,4,4,0,0,1-1.1-3.1V43.8h-1.7V41.3h1.7V37.7h3.1v3.6h3.6v2.5Z" transform="translate(1.3 1.5)"/><path class="cls-3" d="M275.7,55.6a6.2,6.2,0,0,1-2.2-1.7,3.49,3.49,0,0,1-.8-2.4h3.1a2.4,2.4,0,0,0,.9,1.6,2.81,2.81,0,0,0,2,.6,3.94,3.94,0,0,0,2-.5,1.36,1.36,0,0,0,.7-1.3,1.3,1.3,0,0,0-.8-1.2,11.33,11.33,0,0,0-2.5-.9,21.16,21.16,0,0,1-2.7-.9,4.63,4.63,0,0,1-1.8-1.3,3.57,3.57,0,0,1-.8-2.3,3.14,3.14,0,0,1,.7-2.1,4.42,4.42,0,0,1,2-1.5,8.88,8.88,0,0,1,3-.6,5.68,5.68,0,0,1,4,1.3,4.42,4.42,0,0,1,1.6,3.4h-3a2.26,2.26,0,0,0-.8-1.6,2.88,2.88,0,0,0-1.9-.6,3,3,0,0,0-1.8.5,1.43,1.43,0,0,0-.6,1.2,1.28,1.28,0,0,0,.4,1,2.07,2.07,0,0,0,1,.6c.4.2,1,.3,1.8.6a19.11,19.11,0,0,1,2.6.9,4.63,4.63,0,0,1,1.8,1.3,3.75,3.75,0,0,1,.1,4.5,3.82,3.82,0,0,1-2,1.5,6.68,6.68,0,0,1-3,.6A9.42,9.42,0,0,1,275.7,55.6Z" transform="translate(1.3 1.5)"/><path class="cls-3" d="M298.8,52.2h-7.7L289.8,56h-3.2l6.6-18.5h3.5L303.3,56h-3.2Zm-.9-2.5-3-8.6-3,8.6Z" transform="translate(1.3 1.5)"/><path class="cls-3" d="M311.3,41.8a6,6,0,0,1,3-.7,7,7,0,0,1,3.5.9,6.27,6.27,0,0,1,2.5,2.6,8.9,8.9,0,0,1,0,7.8,6,6,0,0,1-2.5,2.7,7.11,7.11,0,0,1-3.5,1,6.46,6.46,0,0,1-5.1-2.4v9.1h-3V41.3h3v2.2A6,6,0,0,1,311.3,41.8Zm6.2,4.2a5.23,5.23,0,0,0-1.6-1.7,4.33,4.33,0,0,0-4.4,0,4.36,4.36,0,0,0-1.6,1.7,5.93,5.93,0,0,0,0,5.2,4.4,4.4,0,0,0,1.6,1.7,4.33,4.33,0,0,0,4.4,0,4.36,4.36,0,0,0,1.6-1.7,5.4,5.4,0,0,0,.6-2.7A4.63,4.63,0,0,0,317.5,46Z" transform="translate(1.3 1.5)"/><path class="cls-3" d="M329.3,41.8a6,6,0,0,1,3-.7,7,7,0,0,1,3.5.9,6.27,6.27,0,0,1,2.5,2.6,8.9,8.9,0,0,1,0,7.8,6,6,0,0,1-2.5,2.7,7.11,7.11,0,0,1-3.5,1,6.46,6.46,0,0,1-5.1-2.4v9.1h-3V41.3h3v2.2A6,6,0,0,1,329.3,41.8Zm6.2,4.2a5.23,5.23,0,0,0-1.6-1.7,4.33,4.33,0,0,0-4.4,0,4.36,4.36,0,0,0-1.6,1.7,5.93,5.93,0,0,0,0,5.2,4.4,4.4,0,0,0,1.6,1.7,4.33,4.33,0,0,0,4.4,0,4.36,4.36,0,0,0,1.6-1.7,5.4,5.4,0,0,0,.6-2.7A4.63,4.63,0,0,0,335.5,46Z" transform="translate(1.3 1.5)"/></g><circle class="cls-3" cx="50.3" cy="49.3" r="43.5"/><path class="cls-4" d="M71,32.9a25.84,25.84,0,0,0-45.2,25L22,71.9l14-3.8A25.91,25.91,0,0,0,71.1,57.7,25.45,25.45,0,0,0,71,32.9ZM66.4,56.2a21,21,0,0,1-28.8,7.2l-.8-.5L29,65l2-7.8-.5-.8a21,21,0,1,1,35.9-.2Z" transform="translate(1.3 1.5)"/><path class="cls-4" d="M58,49c-1.1-.6-2.5-1.3-3.7-.8-1,.4-1.6,1.9-2.2,2.7a1,1,0,0,1-1.2.3,17.2,17.2,0,0,1-8.4-7.1,1.07,1.07,0,0,1,.1-1.4,5.79,5.79,0,0,0,1.5-2.5,5,5,0,0,0-.7-2.9c-.5-1.1-1.1-2.6-2.2-3.2a2.88,2.88,0,0,0-3.2.5,6.34,6.34,0,0,0-2.2,5.1,9.85,9.85,0,0,0,.2,1.7A11.66,11.66,0,0,0,37.6,45a21.28,21.28,0,0,0,1.6,2.5,24.86,24.86,0,0,0,7.1,6.6,22.81,22.81,0,0,0,4.5,2,10,10,0,0,0,5.1.8,6.26,6.26,0,0,0,4.7-3.5,2.82,2.82,0,0,0,.2-1.8C60.6,50.4,59,49.7,58,49Z" transform="translate(1.3 1.5)"/></svg>