<?xml version="1.0" encoding="utf-8"?>
<!-- Generator: Adobe Illustrator 25.4.1, SVG Export Plug-In . SVG Version: 6.00 Build 0)  -->
<svg version="1.1" id="Layer_1" xmlns="http://www.w3.org/2000/svg" xmlns:xlink="http://www.w3.org/1999/xlink" x="0px" y="0px"
	 viewBox="0 0 467.7 95.6" style="enable-background:new 0 0 467.7 95.6;" xml:space="preserve">
<style type="text/css">
	.st0{fill:#C9A751;}
	.st1{fill:#FFFFFF;}
	.st2{enable-background:new    ;}
	.st3{fill:#3D3B38;}
</style>
<path class="st0" d="M48.1,0h371.7c26.4,0,47.8,21.4,47.8,47.8l0,0c0,26.4-21.4,47.8-47.8,47.8H48.1c-26.4,0-47.8-21.4-47.8-47.8
	l0,0C0.3,21.4,21.7,0,48.1,0z"/>
<path class="st1" d="M451.3,47.8L451.3,47.8c0,9.5,2.8,18.8,8.2,26.7c5.3-7.9,8.2-17.2,8.2-26.7l0,0c0-9.5-2.8-18.8-8.2-26.7
	C454.1,29,451.3,38.3,451.3,47.8z"/>
<g class="st2">
	<path class="st1" d="M217.6,36.9v2.5h-7.8v5.4h6.1v2.5h-6.1v8.1h-3V36.9H217.6z"/>
	<path class="st1" d="M220.3,44.1c0.6-1.1,1.4-2,2.5-2.6c1.1-0.6,2.2-0.9,3.5-0.9c1.2,0,2.2,0.2,3,0.7c0.9,0.5,1.5,1,2.1,1.7v-2.1
		h3.1v14.6h-3.1v-2.2c-0.5,0.7-1.2,1.3-2.1,1.7c-0.9,0.5-1.9,0.7-3,0.7c-1.3,0-2.4-0.3-3.5-1c-1-0.6-1.9-1.5-2.5-2.7
		c-0.6-1.2-0.9-2.5-0.9-3.9C219.4,46.5,219.7,45.2,220.3,44.1z M230.7,45.4c-0.4-0.7-1-1.3-1.6-1.7c-0.7-0.4-1.4-0.6-2.2-0.6
		s-1.5,0.2-2.2,0.6c-0.7,0.4-1.2,0.9-1.6,1.7s-0.6,1.6-0.6,2.6s0.2,1.9,0.6,2.7s1,1.3,1.6,1.7c0.7,0.4,1.4,0.6,2.2,0.6
		c0.8,0,1.5-0.2,2.2-0.6c0.7-0.4,1.2-1,1.6-1.7c0.4-0.8,0.6-1.6,0.6-2.6S231.2,46.1,230.7,45.4z"/>
	<path class="st1" d="M238.3,44.1c0.6-1.1,1.5-2,2.5-2.6c1.1-0.6,2.3-0.9,3.7-0.9c1.8,0,3.2,0.4,4.4,1.3c1.2,0.8,1.9,2,2.3,3.6H248
		c-0.3-0.7-0.7-1.3-1.3-1.7c-0.6-0.4-1.3-0.6-2.2-0.6c-1.2,0-2.2,0.4-3,1.3s-1.1,2.1-1.1,3.7c0,1.6,0.4,2.8,1.1,3.7
		c0.7,0.9,1.7,1.3,3,1.3c1.8,0,2.9-0.8,3.5-2.3h3.3c-0.4,1.5-1.2,2.7-2.4,3.5c-1.2,0.9-2.6,1.3-4.4,1.3c-1.4,0-2.6-0.3-3.7-0.9
		c-1.1-0.6-1.9-1.5-2.5-2.7c-0.6-1.1-0.9-2.5-0.9-4C237.4,46.5,237.7,45.2,238.3,44.1z"/>
	<path class="st1" d="M267.6,49.2h-11.2c0.1,1.2,0.5,2.1,1.3,2.8c0.8,0.7,1.7,1.1,2.9,1.1c1.6,0,2.8-0.7,3.5-2h3.3
		c-0.4,1.3-1.2,2.4-2.4,3.3c-1.2,0.9-2.6,1.3-4.3,1.3c-1.4,0-2.7-0.3-3.8-0.9c-1.1-0.6-2-1.5-2.6-2.7c-0.6-1.1-0.9-2.5-0.9-4
		c0-1.5,0.3-2.8,0.9-4c0.6-1.1,1.5-2,2.6-2.6c1.1-0.6,2.4-0.9,3.8-0.9c1.4,0,2.6,0.3,3.7,0.9c1.1,0.6,1.9,1.4,2.5,2.5
		s0.9,2.3,0.9,3.8C267.7,48.2,267.7,48.7,267.6,49.2z M264.6,46.7c0-1.1-0.4-2-1.2-2.7c-0.8-0.7-1.7-1-2.9-1c-1,0-1.9,0.3-2.7,1
		c-0.7,0.7-1.2,1.6-1.3,2.7H264.6z"/>
	<path class="st1" d="M275.8,41.2c0.9-0.5,1.9-0.7,3-0.7c1.3,0,2.5,0.3,3.5,0.9c1,0.6,1.9,1.5,2.5,2.6c0.6,1.1,0.9,2.4,0.9,3.9
		c0,1.5-0.3,2.8-0.9,3.9c-0.6,1.2-1.4,2.1-2.5,2.7c-1.1,0.6-2.2,1-3.5,1c-1.1,0-2.1-0.2-3-0.7c-0.9-0.4-1.6-1-2.1-1.7v2.1h-3V35.7h3
		v7.2C274.2,42.2,274.9,41.6,275.8,41.2z M282,45.4c-0.4-0.7-1-1.3-1.6-1.7c-0.7-0.4-1.4-0.6-2.2-0.6c-0.8,0-1.5,0.2-2.2,0.6
		c-0.7,0.4-1.2,1-1.6,1.7c-0.4,0.7-0.6,1.6-0.6,2.6s0.2,1.9,0.6,2.6c0.4,0.8,1,1.3,1.6,1.7c0.7,0.4,1.4,0.6,2.2,0.6
		c0.8,0,1.5-0.2,2.2-0.6c0.7-0.4,1.2-1,1.6-1.7s0.6-1.6,0.6-2.7S282.4,46.1,282,45.4z"/>
	<path class="st1" d="M291.3,54.6c-1.1-0.6-2-1.5-2.6-2.7c-0.6-1.1-1-2.5-1-4c0-1.5,0.3-2.8,1-4c0.7-1.2,1.5-2,2.7-2.7
		c1.1-0.6,2.4-0.9,3.8-0.9s2.7,0.3,3.8,0.9c1.1,0.6,2,1.5,2.7,2.7c0.7,1.2,1,2.5,1,4c0,1.5-0.3,2.8-1,4c-0.7,1.2-1.6,2-2.7,2.7
		c-1.2,0.6-2.4,0.9-3.8,0.9C293.7,55.6,292.4,55.3,291.3,54.6z M297.2,52.4c0.7-0.4,1.2-0.9,1.7-1.7c0.4-0.7,0.6-1.6,0.6-2.7
		c0-1.1-0.2-2-0.6-2.7c-0.4-0.7-0.9-1.3-1.6-1.7c-0.7-0.4-1.4-0.6-2.2-0.6c-0.8,0-1.5,0.2-2.2,0.6c-0.7,0.4-1.2,0.9-1.6,1.7
		c-0.4,0.7-0.6,1.6-0.6,2.7c0,1.6,0.4,2.8,1.2,3.7c0.8,0.9,1.8,1.3,3,1.3C295.8,53,296.6,52.8,297.2,52.4z"/>
	<path class="st1" d="M308.2,54.6c-1.1-0.6-2-1.5-2.6-2.7c-0.6-1.1-1-2.5-1-4c0-1.5,0.3-2.8,1-4c0.7-1.2,1.5-2,2.7-2.7
		c1.1-0.6,2.4-0.9,3.8-0.9s2.7,0.3,3.8,0.9c1.1,0.6,2,1.5,2.7,2.7c0.7,1.2,1,2.5,1,4c0,1.5-0.3,2.8-1,4c-0.7,1.2-1.6,2-2.7,2.7
		c-1.2,0.6-2.4,0.9-3.8,0.9C310.6,55.6,309.4,55.3,308.2,54.6z M314.2,52.4c0.7-0.4,1.2-0.9,1.7-1.7c0.4-0.7,0.6-1.6,0.6-2.7
		c0-1.1-0.2-2-0.6-2.7c-0.4-0.7-0.9-1.3-1.6-1.7c-0.7-0.4-1.4-0.6-2.2-0.6c-0.8,0-1.5,0.2-2.2,0.6c-0.7,0.4-1.2,0.9-1.6,1.7
		c-0.4,0.7-0.6,1.6-0.6,2.7c0,1.6,0.4,2.8,1.2,3.7c0.8,0.9,1.8,1.3,3,1.3C312.8,53,313.5,52.8,314.2,52.4z"/>
	<path class="st1" d="M328.4,48l6.7,7.3H331l-5.4-6.3v6.3h-3V35.7h3v11.4l5.3-6.4h4.2L328.4,48z"/>
</g>
<circle class="st1" cx="49.1" cy="47.8" r="43.5"/>
<path class="st3" d="M57.6,50.6l1.2-8.1H51v-5.3c0-2.2,1.1-4.4,4.6-4.4h3.5v-6.9c-2.1-0.3-4.2-0.5-6.3-0.6c-6.4,0-10.6,3.9-10.6,11
	v6.2h-7.2v8.1h7.2v19.7H51V50.6H57.6z"/>
</svg>
