<?xml version="1.0" encoding="utf-8"?>
<!-- Generator: Adobe Illustrator 25.4.1, SVG Export Plug-In . SVG Version: 6.00 Build 0)  -->
<svg version="1.1" id="Layer_1" xmlns="http://www.w3.org/2000/svg" xmlns:xlink="http://www.w3.org/1999/xlink" x="0px" y="0px"
	 viewBox="0 0 467.7 95.6" style="enable-background:new 0 0 467.7 95.6;" xml:space="preserve">
<style type="text/css">
	.st0{fill:#C9A751;}
	.st1{fill:#FFFFFF;}
	.st2{enable-background:new    ;}
	.st3{fill-rule:evenodd;clip-rule:evenodd;fill:#3D3B38;}
</style>
<path class="st0" d="M48.1,0h371.7c26.4,0,47.8,21.4,47.8,47.8l0,0c0,26.4-21.4,47.8-47.8,47.8H48.1c-26.4,0-47.8-21.4-47.8-47.8
	l0,0C0.3,21.4,21.7,0,48.1,0z"/>
<path class="st1" d="M451.3,47.9L451.3,47.9c0,9.5,2.8,18.8,8.2,26.7c5.3-7.9,8.2-17.2,8.2-26.7l0,0c0-9.5-2.8-18.8-8.2-26.7
	C454.1,29.1,451.3,38.4,451.3,47.9z"/>
<g class="st2">
	<path class="st1" d="M225.9,37.5L220.4,56H217l-3.9-14L209,56l-3.4,0l-5.2-18.5h3.2l3.8,15l4.1-15h3.4l3.8,14.9l3.8-14.9H225.9z"/>
	<path class="st1" d="M238.9,41.8c0.9,0.5,1.6,1.2,2.1,2.1c0.5,0.9,0.8,2.1,0.8,3.4V56h-3v-8.2c0-1.3-0.3-2.3-1-3
		c-0.7-0.7-1.5-1-2.7-1s-2,0.3-2.7,1c-0.7,0.7-1,1.7-1,3V56h-3V36.3h3V43c0.5-0.6,1.2-1.1,2-1.4s1.7-0.5,2.6-0.5
		C237.1,41.1,238.1,41.3,238.9,41.8z"/>
	<path class="st1" d="M245.5,44.7c0.6-1.1,1.4-2,2.5-2.6c1.1-0.6,2.2-0.9,3.5-0.9c1.2,0,2.2,0.2,3,0.7c0.9,0.5,1.5,1,2.1,1.7v-2.1
		h3.1V56h-3.1v-2.2c-0.5,0.7-1.2,1.3-2.1,1.7s-1.9,0.7-3,0.7c-1.3,0-2.4-0.3-3.5-1c-1-0.6-1.9-1.5-2.5-2.7c-0.6-1.2-0.9-2.5-0.9-3.9
		C244.6,47.1,244.9,45.8,245.5,44.7z M255.9,46c-0.4-0.7-1-1.3-1.6-1.7s-1.4-0.6-2.2-0.6c-0.8,0-1.5,0.2-2.2,0.6
		c-0.7,0.4-1.2,0.9-1.6,1.7s-0.6,1.6-0.6,2.6s0.2,1.9,0.6,2.7s1,1.3,1.6,1.7c0.7,0.4,1.4,0.6,2.2,0.6c0.8,0,1.5-0.2,2.2-0.6
		c0.7-0.4,1.2-1,1.6-1.7c0.4-0.8,0.6-1.6,0.6-2.6S256.4,46.8,255.9,46z"/>
	<path class="st1" d="M267.1,43.8v8.1c0,0.5,0.1,0.9,0.4,1.2c0.3,0.2,0.7,0.4,1.3,0.4h1.9V56h-2.4c-1.4,0-2.4-0.3-3.1-1
		c-0.7-0.6-1.1-1.7-1.1-3.1v-8.1h-1.7v-2.5h1.7v-3.6h3.1v3.6h3.6v2.5H267.1z"/>
	<path class="st1" d="M275.7,55.6c-0.9-0.4-1.6-1-2.2-1.7s-0.8-1.5-0.8-2.4h3.1c0.1,0.6,0.3,1.1,0.9,1.6s1.2,0.6,2,0.6
		c0.8,0,1.5-0.2,2-0.5s0.7-0.7,0.7-1.3c0-0.5-0.3-1-0.8-1.2c-0.5-0.3-1.4-0.6-2.5-0.9c-1.1-0.3-2-0.6-2.7-0.9
		c-0.7-0.3-1.3-0.7-1.8-1.3c-0.5-0.6-0.8-1.4-0.8-2.3c0-0.8,0.2-1.5,0.7-2.1c0.5-0.6,1.1-1.2,2-1.5s1.8-0.6,3-0.6c1.7,0,3,0.4,4,1.3
		s1.6,2,1.6,3.4h-3c-0.1-0.7-0.3-1.2-0.8-1.6c-0.5-0.4-1.1-0.6-1.9-0.6c-0.8,0-1.4,0.2-1.8,0.5c-0.4,0.3-0.6,0.7-0.6,1.2
		c0,0.4,0.1,0.7,0.4,1s0.6,0.5,1,0.6c0.4,0.2,1,0.3,1.8,0.6c1.1,0.3,1.9,0.6,2.6,0.9s1.3,0.7,1.8,1.3c0.5,0.6,0.8,1.3,0.8,2.3
		c0,0.8-0.2,1.6-0.7,2.2c-0.5,0.7-1.1,1.2-2,1.5c-0.8,0.4-1.8,0.6-3,0.6C277.6,56.2,276.6,56,275.7,55.6z"/>
	<path class="st1" d="M298.8,52.2h-7.7l-1.3,3.8h-3.2l6.6-18.5h3.5l6.6,18.5h-3.2L298.8,52.2z M297.9,49.7l-3-8.6l-3,8.6H297.9z"/>
	<path class="st1" d="M311.3,41.8c0.9-0.5,1.9-0.7,3-0.7c1.3,0,2.4,0.3,3.5,0.9c1.1,0.6,1.9,1.5,2.5,2.6c0.6,1.1,0.9,2.4,0.9,3.9
		c0,1.5-0.3,2.8-0.9,3.9c-0.6,1.2-1.4,2.1-2.5,2.7c-1.1,0.6-2.2,1-3.5,1c-1.1,0-2.1-0.2-3-0.7c-0.9-0.5-1.6-1-2.1-1.7v9.1h-3V41.3h3
		v2.2C309.7,42.8,310.4,42.3,311.3,41.8z M317.5,46c-0.4-0.7-1-1.3-1.6-1.7c-0.7-0.4-1.4-0.6-2.2-0.6c-0.8,0-1.5,0.2-2.2,0.6
		c-0.7,0.4-1.2,1-1.6,1.7s-0.6,1.6-0.6,2.6s0.2,1.9,0.6,2.6c0.4,0.8,1,1.3,1.6,1.7c0.7,0.4,1.4,0.6,2.2,0.6c0.8,0,1.5-0.2,2.2-0.6
		c0.7-0.4,1.2-1,1.6-1.7s0.6-1.6,0.6-2.7S317.9,46.7,317.5,46z"/>
	<path class="st1" d="M329.3,41.8c0.9-0.5,1.9-0.7,3-0.7c1.3,0,2.4,0.3,3.5,0.9c1.1,0.6,1.9,1.5,2.5,2.6c0.6,1.1,0.9,2.4,0.9,3.9
		c0,1.5-0.3,2.8-0.9,3.9c-0.6,1.2-1.4,2.1-2.5,2.7c-1.1,0.6-2.2,1-3.5,1c-1.1,0-2.1-0.2-3-0.7c-0.9-0.5-1.6-1-2.1-1.7v9.1h-3V41.3h3
		v2.2C327.7,42.8,328.4,42.3,329.3,41.8z M335.5,46c-0.4-0.7-1-1.3-1.6-1.7c-0.7-0.4-1.4-0.6-2.2-0.6c-0.8,0-1.5,0.2-2.2,0.6
		c-0.7,0.4-1.2,1-1.6,1.7s-0.6,1.6-0.6,2.6s0.2,1.9,0.6,2.6c0.4,0.8,1,1.3,1.6,1.7c0.7,0.4,1.4,0.6,2.2,0.6c0.8,0,1.5-0.2,2.2-0.6
		c0.7-0.4,1.2-1,1.6-1.7s0.6-1.6,0.6-2.7S335.9,46.7,335.5,46z"/>
</g>
<circle class="st1" cx="49" cy="47.8" r="43.5"/>
<path class="st3" d="M71,32.9C63.6,20.6,47.8,16.7,35.5,24c-11.6,7-15.9,21.8-9.7,33.9l-3.8,14l14-3.8c12.5,6.8,28.2,2.2,35.1-10.4
	C75.4,50,75.3,40.6,71,32.9z M66.4,56.2c-6,9.9-18.8,13.2-28.8,7.2l-0.8-0.5L29,65l2-7.8l-0.5-0.8c-6-9.9-2.9-22.8,7-28.9
	s22.8-2.9,28.9,7C70.4,41.1,70.4,49.5,66.4,56.2L66.4,56.2z"/>
<path class="st3" d="M58,49c-1.1-0.6-2.5-1.3-3.7-0.8c-1,0.4-1.6,1.9-2.2,2.7c-0.3,0.4-0.8,0.5-1.2,0.3c-3.5-1.4-6.5-3.9-8.4-7.1
	c-0.3-0.4-0.3-1,0.1-1.4c0.7-0.7,1.2-1.5,1.5-2.5c0.1-1-0.2-2-0.7-2.9c-0.5-1.1-1.1-2.6-2.2-3.2c-1.1-0.5-2.4-0.3-3.2,0.5
	c-1.5,1.3-2.3,3.2-2.2,5.1c0,0.6,0.1,1.1,0.2,1.7c0.3,1.3,0.9,2.5,1.6,3.6c0.5,0.9,1,1.7,1.6,2.5c1.9,2.6,4.3,4.9,7.1,6.6
	c1.4,0.8,2.9,1.5,4.5,2c1.6,0.7,3.4,1,5.1,0.8c2-0.3,3.8-1.6,4.7-3.5c0.3-0.6,0.3-1.2,0.2-1.8C60.6,50.4,59,49.7,58,49z"/>
</svg>
