<?xml version="1.0" encoding="utf-8"?>
<!-- Generator: Adobe Illustrator 25.4.1, SVG Export Plug-In . SVG Version: 6.00 Build 0)  -->
<svg version="1.1" id="Layer_1" xmlns="http://www.w3.org/2000/svg" xmlns:xlink="http://www.w3.org/1999/xlink" x="0px" y="0px"
	 viewBox="0 0 468.5 95.6" style="enable-background:new 0 0 468.5 95.6;" xml:space="preserve">
<style type="text/css">
	.st0{fill:#C9A751;}
	.st1{fill:#FFFFFF;}
	.st2{enable-background:new    ;}
	.st3{fill:#3D3B38;}
</style>
<path class="st0" d="M419.5,95.6H47.8C21.4,95.6,0,74.2,0,47.8l0,0C0,21.4,21.4,0,47.8,0h371.7c26.4,0,47.8,21.4,47.8,47.8l0,0
	C467.4,74.2,445.9,95.6,419.5,95.6z"/>
<path class="st1" d="M16.4,47.4L16.4,47.4c0,9.5-2.8,18.8-8.2,26.7C2.8,66.3,0,57,0,47.4l0,0c0-9.5,2.8-18.8,8.2-26.7
	C13.5,28.6,16.4,37.9,16.4,47.4z"/>
<g class="st2">
	<path class="st1" d="M132.4,38v18.5h-3V38H132.4z"/>
	<path class="st1" d="M146.8,42.3c0.9,0.5,1.6,1.2,2.1,2.1c0.5,0.9,0.8,2.1,0.8,3.4v8.6h-3v-8.2c0-1.3-0.3-2.3-1-3
		c-0.7-0.7-1.5-1-2.7-1c-1.1,0-2,0.3-2.7,1c-0.7,0.7-1,1.7-1,3v8.2h-3V41.9h3v1.7c0.5-0.6,1.1-1.1,1.9-1.4c0.8-0.3,1.6-0.5,2.5-0.5
		C144.9,41.6,145.9,41.9,146.8,42.3z"/>
	<path class="st1" d="M155.8,56.1c-0.9-0.4-1.6-1-2.2-1.7c-0.5-0.7-0.8-1.5-0.8-2.4h3.1c0.1,0.6,0.3,1.1,0.9,1.6
		c0.5,0.4,1.2,0.6,2,0.6c0.8,0,1.5-0.2,2-0.5c0.5-0.3,0.7-0.7,0.7-1.3c0-0.5-0.3-1-0.8-1.2c-0.5-0.3-1.4-0.6-2.5-0.9
		c-1.1-0.3-2-0.6-2.7-0.9c-0.7-0.3-1.3-0.7-1.8-1.3s-0.8-1.4-0.8-2.3c0-0.8,0.2-1.5,0.7-2.1c0.5-0.6,1.1-1.2,2-1.5
		c0.9-0.4,1.8-0.6,3-0.6c1.7,0,3,0.4,4,1.3c1,0.8,1.6,2,1.6,3.4h-3c-0.1-0.7-0.3-1.2-0.8-1.6c-0.5-0.4-1.1-0.6-1.9-0.6
		c-0.8,0-1.4,0.2-1.8,0.5c-0.4,0.3-0.6,0.7-0.6,1.2c0,0.4,0.1,0.7,0.4,1s0.6,0.5,1,0.6c0.4,0.2,1,0.3,1.8,0.6
		c1.1,0.3,1.9,0.6,2.6,0.9c0.7,0.3,1.3,0.7,1.8,1.3c0.5,0.6,0.8,1.3,0.8,2.3c0,0.8-0.2,1.6-0.7,2.2c-0.5,0.7-1.1,1.2-2,1.5
		c-0.8,0.4-1.8,0.6-3,0.6C157.8,56.7,156.7,56.5,155.8,56.1z"/>
	<path class="st1" d="M171.3,44.3v8.1c0,0.5,0.1,0.9,0.4,1.2c0.3,0.2,0.7,0.4,1.3,0.4h1.9v2.5h-2.4c-1.4,0-2.4-0.3-3.1-1
		c-0.7-0.6-1.1-1.7-1.1-3.1v-8.1h-1.7v-2.5h1.7v-3.6h3.1v3.6h3.6v2.5H171.3z"/>
	<path class="st1" d="M177.6,45.2c0.6-1.1,1.4-2,2.5-2.6c1.1-0.6,2.2-0.9,3.5-0.9c1.2,0,2.2,0.2,3,0.7c0.9,0.5,1.5,1,2.1,1.7v-2.1
		h3.1v14.6h-3.1v-2.2c-0.5,0.7-1.2,1.3-2.1,1.7c-0.9,0.5-1.9,0.7-3,0.7c-1.3,0-2.4-0.3-3.5-1c-1-0.6-1.9-1.5-2.5-2.7
		c-0.6-1.2-0.9-2.5-0.9-3.9C176.6,47.7,177,46.3,177.6,45.2z M188,46.5c-0.4-0.7-1-1.3-1.6-1.7c-0.7-0.4-1.4-0.6-2.2-0.6
		s-1.5,0.2-2.2,0.6c-0.7,0.4-1.2,0.9-1.6,1.7s-0.6,1.6-0.6,2.6s0.2,1.9,0.6,2.7s1,1.3,1.6,1.7c0.7,0.4,1.4,0.6,2.2,0.6
		c0.8,0,1.5-0.2,2.2-0.6c0.7-0.4,1.2-1,1.6-1.7c0.4-0.8,0.6-1.6,0.6-2.6S188.4,47.3,188,46.5z"/>
	<path class="st1" d="M204.6,42.3c0.9,0.5,1.6,1,2.1,1.7v-2.1h3.1v14.9c0,1.3-0.3,2.5-0.8,3.6c-0.6,1.1-1.4,1.9-2.5,2.5
		c-1.1,0.6-2.3,0.9-3.8,0.9c-2,0-3.6-0.5-4.9-1.4c-1.3-0.9-2.1-2.2-2.2-3.8h3c0.2,0.8,0.7,1.4,1.5,1.8c0.8,0.5,1.7,0.7,2.7,0.7
		c1.2,0,2.2-0.4,3-1.1c0.8-0.7,1.1-1.8,1.1-3.2v-2.4c-0.5,0.7-1.2,1.3-2.1,1.7c-0.9,0.5-1.9,0.7-3,0.7c-1.3,0-2.4-0.3-3.5-1
		c-1.1-0.6-1.9-1.5-2.5-2.7c-0.6-1.2-0.9-2.5-0.9-3.9c0-1.5,0.3-2.8,0.9-3.9c0.6-1.1,1.4-2,2.5-2.6c1.1-0.6,2.2-0.9,3.5-0.9
		C202.7,41.6,203.7,41.9,204.6,42.3z M206,46.5c-0.4-0.7-1-1.3-1.6-1.7c-0.7-0.4-1.4-0.6-2.2-0.6s-1.5,0.2-2.2,0.6
		c-0.7,0.4-1.2,0.9-1.6,1.7s-0.6,1.6-0.6,2.6s0.2,1.9,0.6,2.7s1,1.3,1.6,1.7c0.7,0.4,1.4,0.6,2.2,0.6c0.8,0,1.5-0.2,2.2-0.6
		c0.7-0.4,1.2-1,1.6-1.7c0.4-0.8,0.6-1.6,0.6-2.6S206.4,47.3,206,46.5z"/>
	<path class="st1" d="M218.4,42.3c0.7-0.4,1.6-0.6,2.6-0.6v3.1h-0.8c-1.2,0-2.1,0.3-2.7,0.9c-0.6,0.6-0.9,1.6-0.9,3.1v7.7h-3V41.9h3
		V44C217.1,43.3,217.7,42.7,218.4,42.3z"/>
	<path class="st1" d="M223.8,45.2c0.6-1.1,1.4-2,2.5-2.6c1.1-0.6,2.2-0.9,3.5-0.9c1.2,0,2.2,0.2,3,0.7c0.9,0.5,1.5,1,2.1,1.7v-2.1
		h3.1v14.6h-3.1v-2.2c-0.5,0.7-1.2,1.3-2.1,1.7c-0.9,0.5-1.9,0.7-3,0.7c-1.3,0-2.4-0.3-3.5-1c-1-0.6-1.9-1.5-2.5-2.7
		c-0.6-1.2-0.9-2.5-0.9-3.9C222.8,47.7,223.1,46.3,223.8,45.2z M234.2,46.5c-0.4-0.7-1-1.3-1.6-1.7c-0.7-0.4-1.4-0.6-2.2-0.6
		s-1.5,0.2-2.2,0.6c-0.7,0.4-1.2,0.9-1.6,1.7s-0.6,1.6-0.6,2.6s0.2,1.9,0.6,2.7s1,1.3,1.6,1.7c0.7,0.4,1.4,0.6,2.2,0.6
		c0.8,0,1.5-0.2,2.2-0.6c0.7-0.4,1.2-1,1.6-1.7c0.4-0.8,0.6-1.6,0.6-2.6S234.6,47.3,234.2,46.5z"/>
	<path class="st1" d="M262.7,42.3c0.9,0.5,1.6,1.2,2.2,2.1c0.5,0.9,0.8,2.1,0.8,3.4v8.6h-3v-8.2c0-1.3-0.3-2.3-1-3
		c-0.7-0.7-1.5-1-2.7-1c-1.1,0-2,0.3-2.7,1s-1,1.7-1,3v8.2h-3v-8.2c0-1.3-0.3-2.3-1-3c-0.7-0.7-1.5-1-2.7-1c-1.1,0-2,0.3-2.7,1
		s-1,1.7-1,3v8.2h-3V41.9h3v1.7c0.5-0.6,1.1-1.1,1.9-1.4c0.8-0.3,1.6-0.5,2.4-0.5c1.2,0,2.2,0.2,3.1,0.7c0.9,0.5,1.6,1.2,2.1,2.2
		c0.4-0.9,1.1-1.6,2.1-2.1c0.9-0.5,1.9-0.8,3-0.8C260.7,41.6,261.7,41.9,262.7,42.3z"/>
</g>
<path class="st3" d="M431.1,31.5c-1.7,0-3.1,1.4-3.1,3s1.4,3.1,3,3.1s3.1-1.4,3.1-3l0,0c0-1.7-1.3-3-2.9-3.1
	C431.1,31.5,431.1,31.5,431.1,31.5z"/>
<circle class="st1" cx="418.5" cy="48.4" r="43.5"/>
<path class="st3" d="M420.5,35.5c-7.1,0-12.8,5.7-12.8,12.8c0,7.1,5.7,12.8,12.8,12.8c7.1,0,12.8-5.7,12.8-12.8l0,0
	C433.3,41.2,427.6,35.5,420.5,35.5z M420.5,56.5c-4.5,0-8.2-3.7-8.2-8.2s3.7-8.2,8.2-8.2c4.5,0,8.2,3.7,8.2,8.2
	C428.7,52.8,425.1,56.5,420.5,56.5C420.5,56.5,420.5,56.5,420.5,56.5L420.5,56.5z"/>
<path class="st3" d="M430.7,22.2h-20.8c-8.6,0-15.6,7-15.6,15.6v20.8c0,8.6,7,15.6,15.6,15.6h20.8c8.6,0,15.6-7,15.6-15.6V37.9
	C446.3,29.3,439.3,22.3,430.7,22.2z M441.4,58.7c0,5.9-4.8,10.7-10.7,10.7h-20.8c-5.9,0-10.7-4.8-10.8-10.7V37.9
	c0-5.9,4.8-10.7,10.8-10.8h20.8c5.9,0,10.7,4.8,10.7,10.8V58.7z"/>
</svg>
