<?xml version="1.0" encoding="utf-8"?>
<!-- Generator: Adobe Illustrator 25.4.1, SVG Export Plug-In . SVG Version: 6.00 Build 0)  -->
<svg version="1.1" id="Layer_1" xmlns="http://www.w3.org/2000/svg" xmlns:xlink="http://www.w3.org/1999/xlink" x="0px" y="0px"
	 viewBox="0 0 467.7 95.6" style="enable-background:new 0 0 467.7 95.6;" xml:space="preserve">
<style type="text/css">
	.st0{fill:#C9A751;}
	.st1{fill:#FFFFFF;}
	.st2{enable-background:new    ;}
	.st3{fill:#3D3B38;}
</style>
<path class="st0" d="M419.5,95.6H47.8C21.4,95.6,0,74.2,0,47.8l0,0C0,21.4,21.4,0,47.8,0h371.7c26.4,0,47.8,21.4,47.8,47.8l0,0
	C467.4,74.2,445.9,95.6,419.5,95.6z"/>
<path class="st1" d="M16.4,47.9L16.4,47.9c0,9.5-2.8,18.8-8.2,26.7C2.8,66.7,0,57.4,0,47.9l0,0c0-9.5,2.8-18.8,8.2-26.7
	C13.5,29.1,16.4,38.4,16.4,47.9z"/>
<g class="st2">
	<path class="st1" d="M168.9,38.5L163.4,57H160l-3.9-14L152,57l-3.4,0l-5.2-18.5h3.2l3.8,15l4.1-15h3.4l3.8,14.9l3.8-14.9H168.9z"/>
	<path class="st1" d="M184.7,50.8h-11.2c0.1,1.2,0.5,2.1,1.3,2.8c0.8,0.7,1.7,1.1,2.9,1.1c1.6,0,2.8-0.7,3.5-2h3.3
		c-0.4,1.3-1.2,2.4-2.4,3.3c-1.2,0.9-2.6,1.3-4.3,1.3c-1.4,0-2.7-0.3-3.8-0.9c-1.1-0.6-2-1.5-2.6-2.7c-0.6-1.1-0.9-2.5-0.9-4
		c0-1.5,0.3-2.8,0.9-4c0.6-1.1,1.5-2,2.6-2.6c1.1-0.6,2.4-0.9,3.8-0.9c1.4,0,2.6,0.3,3.7,0.9c1.1,0.6,1.9,1.4,2.5,2.5
		s0.9,2.3,0.9,3.8C184.8,49.8,184.7,50.3,184.7,50.8z M181.6,48.3c0-1.1-0.4-2-1.2-2.7c-0.8-0.7-1.7-1-2.9-1c-1,0-1.9,0.3-2.7,1
		c-0.7,0.7-1.2,1.6-1.3,2.7H181.6z"/>
	<path class="st1" d="M192.9,42.8c0.9-0.5,1.9-0.7,3-0.7c1.3,0,2.5,0.3,3.5,0.9c1,0.6,1.9,1.5,2.5,2.6c0.6,1.1,0.9,2.4,0.9,3.9
		c0,1.5-0.3,2.8-0.9,3.9c-0.6,1.2-1.4,2.1-2.5,2.7c-1.1,0.6-2.2,1-3.5,1c-1.1,0-2.1-0.2-3-0.7c-0.9-0.4-1.6-1-2.1-1.7V57h-3V37.3h3
		v7.2C191.3,43.8,192,43.2,192.9,42.8z M199,47c-0.4-0.7-1-1.3-1.6-1.7c-0.7-0.4-1.4-0.6-2.2-0.6c-0.8,0-1.5,0.2-2.2,0.6
		c-0.7,0.4-1.2,1-1.6,1.7c-0.4,0.7-0.6,1.6-0.6,2.6s0.2,1.9,0.6,2.6c0.4,0.8,1,1.3,1.6,1.7c0.7,0.4,1.4,0.6,2.2,0.6
		c0.8,0,1.5-0.2,2.2-0.6c0.7-0.4,1.2-1,1.6-1.7s0.6-1.6,0.6-2.7S199.4,47.7,199,47z"/>
	<path class="st1" d="M208,56.6c-0.9-0.4-1.6-1-2.2-1.7c-0.5-0.7-0.8-1.5-0.8-2.4h3.1c0.1,0.6,0.3,1.1,0.9,1.6
		c0.5,0.4,1.2,0.6,2,0.6c0.8,0,1.5-0.2,2-0.5c0.5-0.3,0.7-0.7,0.7-1.3c0-0.5-0.3-1-0.8-1.2c-0.5-0.3-1.4-0.6-2.5-0.9
		c-1.1-0.3-2-0.6-2.7-0.9c-0.7-0.3-1.3-0.7-1.8-1.3s-0.8-1.4-0.8-2.3c0-0.8,0.2-1.5,0.7-2.1c0.5-0.6,1.1-1.2,2-1.5
		c0.9-0.4,1.8-0.6,3-0.6c1.7,0,3,0.4,4,1.3c1,0.8,1.6,2,1.6,3.4h-3c-0.1-0.7-0.3-1.2-0.8-1.6c-0.5-0.4-1.1-0.6-1.9-0.6
		c-0.8,0-1.4,0.2-1.8,0.5c-0.4,0.3-0.6,0.7-0.6,1.2c0,0.4,0.1,0.7,0.4,1s0.6,0.5,1,0.6c0.4,0.2,1,0.3,1.8,0.6
		c1.1,0.3,1.9,0.6,2.6,0.9c0.7,0.3,1.3,0.7,1.8,1.3c0.5,0.6,0.8,1.3,0.8,2.3c0,0.8-0.2,1.6-0.7,2.2c-0.5,0.7-1.1,1.2-2,1.5
		c-0.8,0.4-1.8,0.6-3,0.6C209.9,57.2,208.9,57,208,56.6z"/>
	<path class="st1" d="M220.1,39.8c-0.4-0.4-0.6-0.8-0.6-1.4s0.2-1,0.6-1.4c0.4-0.4,0.8-0.6,1.4-0.6c0.5,0,1,0.2,1.4,0.6
		c0.4,0.4,0.6,0.8,0.6,1.4s-0.2,1-0.6,1.4c-0.4,0.4-0.8,0.6-1.4,0.6C220.9,40.4,220.4,40.2,220.1,39.8z M222.9,42.3V57h-3V42.3
		H222.9z"/>
	<path class="st1" d="M230.5,44.8v8.1c0,0.5,0.1,0.9,0.4,1.2c0.3,0.2,0.7,0.4,1.3,0.4h1.9V57h-2.4c-1.4,0-2.4-0.3-3.1-1
		c-0.7-0.6-1.1-1.7-1.1-3.1v-8.1h-1.7v-2.5h1.7v-3.6h3.1v3.6h3.6v2.5H230.5z"/>
	<path class="st1" d="M250.1,50.8h-11.2c0.1,1.2,0.5,2.1,1.3,2.8c0.8,0.7,1.7,1.1,2.9,1.1c1.6,0,2.8-0.7,3.5-2h3.3
		c-0.4,1.3-1.2,2.4-2.4,3.3s-2.6,1.3-4.3,1.3c-1.4,0-2.7-0.3-3.8-0.9c-1.1-0.6-2-1.5-2.6-2.7c-0.6-1.1-0.9-2.5-0.9-4
		c0-1.5,0.3-2.8,0.9-4c0.6-1.1,1.5-2,2.6-2.6c1.1-0.6,2.4-0.9,3.8-0.9c1.4,0,2.6,0.3,3.7,0.9s1.9,1.4,2.5,2.5s0.9,2.3,0.9,3.8
		C250.2,49.8,250.2,50.3,250.1,50.8z M247,48.3c0-1.1-0.4-2-1.2-2.7c-0.8-0.7-1.7-1-2.9-1c-1,0-1.9,0.3-2.7,1
		c-0.7,0.7-1.2,1.6-1.3,2.7H247z"/>
</g>
<circle class="st1" cx="418.9" cy="47.8" r="43.5"/>
<path class="st3" d="M392.5,47.9c0,15,12.2,27.2,27.3,27.2S447,62.9,447,47.8c0-15-12.2-27.2-27.2-27.2
	C404.7,20.6,392.5,32.8,392.5,47.9C392.5,47.9,392.5,47.9,392.5,47.9z M411.9,25.8c-3,4.5-5,11.7-5.2,20.2h-10.2
	C397.1,36.8,403.2,28.9,411.9,25.8z M410.4,49.8h18.8c-0.4,12.8-5.1,21.6-9.4,21.6S410.8,62.6,410.4,49.8L410.4,49.8z M410.4,46
	c0.4-12.8,5.1-21.6,9.4-21.6s9,8.8,9.4,21.6H410.4z M443.2,46h-10.3c-0.2-8.5-2.2-15.7-5.2-20.2C436.3,28.9,442.4,36.8,443.2,46
	L443.2,46z M427.7,70c3-4.5,5-11.7,5.2-20.2h10.2C442.4,59,436.4,66.9,427.7,70z M396.4,49.8h10.3c0.2,8.5,2.2,15.7,5.2,20.2
	C403.2,66.9,397.1,59,396.4,49.8z"/>
</svg>
