<svg xmlns="http://www.w3.org/2000/svg" xmlns:xlink="http://www.w3.org/1999/xlink" viewBox="0 0 96.84 248.51"><defs><style>.cls-1,.cls-2,.cls-3{fill-rule:evenodd;}.cls-1{fill:url(#GradientFill_1);}.cls-2{fill:url(#GradientFill_1-2);}.cls-3{fill:url(#GradientFill_1-3);}</style><linearGradient id="GradientFill_1" x1="82.61" y1="25.98" x2="58.72" y2="40.13" gradientUnits="userSpaceOnUse"><stop offset="0" stop-color="#bf973f"/><stop offset="0.5" stop-color="#eed588"/><stop offset="1" stop-color="#bf973f"/></linearGradient><linearGradient id="GradientFill_1-2" x1="57.71" y1="41.63" x2="37.61" y2="53.52" xlink:href="#GradientFill_1"/><linearGradient id="GradientFill_1-3" x1="110.69" y1="134.01" x2="24.38" y2="185.1" xlink:href="#GradientFill_1"/></defs><g id="Layer_2" data-name="Layer 2"><g id="Layer_1-2" data-name="Layer 1"><path class="cls-1" d="M92.62,60.53c-36.31-25.64-35-37.83-32.94-41.76a4.29,4.29,0,0,1,2.46-2.06C77,11.9,92.62,60.53,92.62,60.53S96.79,15.9,68.53,1.07c0,0-7.88-3.86-17.14,3.09,0,0-11.74,7-7.11,20.23C44.28,24.39,47.37,45.7,92.62,60.53Z"/><path class="cls-2" d="M29.15,43.78c7.5,2.26,14,10.57,26.1,16.71S73.77,58.6,73.77,58.6C68.44,60.4,60.4,58.51,53,48A63,63,0,0,0,37.55,32.4C28.61,27.79,26,34.75,26,34.75,22.38,44.14,29.15,43.78,29.15,43.78Z"/><path class="cls-3" d="M96.84,216.4a56.63,56.63,0,0,1-7.6.51c-32.82,0-59.42-27-59.42-60.39V126.79A30.42,30.42,0,0,1,60,96.13H96.84V67H61.38C27.48,67,0,94.87,0,129.33V156.4c0,50.87,40.58,92.11,90.64,92.11q3.1,0,6.2-.23Z"/></g></g></svg>